<?xml version="1.0" standalone="no"?>
<!DOCTYPE svg PUBLIC "-//W3C//DTD SVG 20010904//EN"
 "http://www.w3.org/TR/2001/REC-SVG-20010904/DTD/svg10.dtd">
<svg version="1.0" xmlns="http://www.w3.org/2000/svg"
 width="114.000000pt" height="137.000000pt" viewBox="0 0 114.000000 137.000000"
 preserveAspectRatio="xMidYMid meet">
<metadata>
Created by potrace 1.16, written by Peter Selinger 2001-2019
</metadata>
<g transform="translate(0.000000,137.000000) scale(0.100000,-0.100000)"
fill="#000000" stroke="none">
<path d="M221 929 c-50 -10 -96 -42 -144 -101 -41 -51 -59 -83 -50 -92 16 -15
49 -3 81 30 40 41 87 64 132 64 16 0 30 -2 30 -4 0 -2 -16 -30 -35 -62 -91
-150 -104 -354 -28 -414 18 -14 41 -20 76 -20 89 0 126 17 204 96 70 71 83 75
83 27 0 -30 34 -86 64 -104 43 -26 127 -25 183 2 120 58 232 274 222 427 l-4
52 31 0 c53 0 87 57 54 90 -19 19 -34 20 -437 19 -230 -1 -438 -5 -462 -10z
m755 -146 c15 -101 -50 -250 -137 -313 -55 -40 -122 -49 -157 -23 -51 38 -59
100 -36 261 7 43 6 44 -21 40 -23 -3 -31 -12 -50 -64 -31 -83 -64 -132 -123
-186 -54 -48 -123 -75 -166 -64 -88 22 -78 183 21 336 l38 60 312 0 312 0 7
-47z"/>
</g>
</svg>
